<svg width="512" height="512" viewBox="0 0 512 512" fill="none" xmlns="http://www.w3.org/2000/svg">
<path d="M333.725 90.4527L487 178.014V2.89101L333.725 90.4527Z" fill="white"/>
<path d="M25 508.682L178.275 421.121L25 333.559V508.682Z" fill="white"/>
<path d="M371.469 234.974L138.644 131.902C84.3141 111.187 60.6039 77.2192 50.2779 52.3344C49.9828 51.6214 49.6963 50.9113 49.4186 50.207C47.7347 53.4154 46.0537 56.7948 44.4133 60.3221C37.021 76.2251 31.8594 92.044 29.0704 107.338C25.6852 125.917 25.8241 143.787 29.4783 160.453C39.677 206.947 77.5323 245.996 142 276.524L375.129 379.724C429.357 400.444 453.036 434.377 463.353 459.239C463.648 459.952 463.935 460.662 464.212 461.366C465.896 458.158 467.577 454.779 469.218 451.251C476.61 435.348 481.774 419.529 484.561 404.235C487.946 385.657 487.807 367.786 484.15 351.121C473.945 304.591 436.032 265.513 371.469 234.974Z" fill="white"/>
</svg>
